# MagicaVoxel @ Ephtracy

# group
o 

# material
mtllib monster-4.mtl
usemtl palette

# normals
vn -1 0 0
vn 1 0 0
vn 0 0 1
vn 0 0 -1
vn 0 -1 0
vn 0 1 0

# texcoords
vt 0.537109 0.5
vt 0.701172 0.5
vt 0.744141 0.5
vt 0.900391 0.5
vt 0.908203 0.5

# verts
v 0.5 -0.6 0.2
v 0.5 -0.6 0
v 0.5 -0.4 0.2
v 0.5 -0.4 0
v 0.5 -0.1 0.2
v 0.5 -0.1 0.1
v 0.5 -5.96046e-08 0.2
v 0.5 -5.96046e-08 0.1
v 0.5 -5.96046e-08 0
v 0.7 -0.6 0.2
v 0.7 -0.6 0.1
v 0.7 -0.6 0
v 0.7 -0.5 0.2
v 0.7 -0.5 0.1
v 0.7 -0.4 0.2
v 0.7 -0.4 0
v 0.7 -0.3 0.2
v 0.7 -0.3 0
v 0.7 -0.1 0.2
v 0.7 -0.1 0.1
v 0.7 -0.1 0
v 0.7 -5.96046e-08 0.2
v 0.7 -5.96046e-08 0.1
v 0.7 -5.96046e-08 0
v 0.5 -0.6 0.2
v 0.5 -0.4 0.2
v 0.5 -0.1 0.2
v 0.5 -5.96046e-08 0.2
v 0.6 -0.6 0.2
v 0.6 -0.5 0.2
v 0.6 -0.4 0.2
v 0.6 -0.3 0.2
v 0.6 -0.1 0.2
v 0.6 -5.96046e-08 0.2
v 0.7 -0.6 0.2
v 0.7 -0.5 0.2
v 0.7 -0.4 0.2
v 0.7 -0.3 0.2
v 0.7 -0.1 0.2
v 0.7 -5.96046e-08 0.2
v 0.5 -0.6 0
v 0.5 -0.4 0
v 0.5 -5.96046e-08 0
v 0.6 -0.4 0
v 0.6 -0.3 0
v 0.6 -0.1 0
v 0.6 -5.96046e-08 0
v 0.7 -0.6 0
v 0.7 -0.4 0
v 0.7 -0.3 0
v 0.7 -0.1 0
v 0.7 -5.96046e-08 0
v 0.5 -0.6 0.2
v 0.6 -0.6 0.2
v 0.7 -0.6 0.2
v 0.6 -0.6 0.1
v 0.7 -0.6 0.1
v 0.5 -0.6 0
v 0.7 -0.6 0
v 0.5 -5.96046e-08 0.2
v 0.6 -5.96046e-08 0.2
v 0.7 -5.96046e-08 0.2
v 0.5 -5.96046e-08 0.1
v 0.6 -5.96046e-08 0.1
v 0.7 -5.96046e-08 0.1
v 0.5 -5.96046e-08 0
v 0.6 -5.96046e-08 0
v 0.7 -5.96046e-08 0

# faces
f 3/1/1 2/1/1 1/1/1
f 4/1/1 2/1/1 3/1/1
f 5/5/1 4/5/1 3/5/1
f 6/5/1 4/5/1 5/5/1
f 7/4/1 6/4/1 5/4/1
f 8/5/1 4/5/1 6/5/1
f 8/4/1 6/4/1 7/4/1
f 9/5/1 4/5/1 8/5/1
f 10/2/2 11/2/2 13/2/2
f 11/1/2 12/1/2 14/1/2
f 13/2/2 11/2/2 14/2/2
f 13/1/2 14/1/2 15/1/2
f 14/1/2 12/1/2 16/1/2
f 15/1/2 14/1/2 16/1/2
f 15/4/2 16/4/2 17/4/2
f 17/4/2 16/4/2 18/4/2
f 17/5/2 18/5/2 19/5/2
f 19/5/2 18/5/2 20/5/2
f 20/5/2 18/5/2 21/5/2
f 19/3/2 20/3/2 22/3/2
f 20/4/2 21/4/2 23/4/2
f 22/3/2 20/3/2 23/3/2
f 23/4/2 21/4/2 24/4/2
f 29/1/3 26/1/3 25/1/3
f 30/1/3 26/1/3 29/1/3
f 31/5/3 27/5/3 26/5/3
f 31/1/3 26/1/3 30/1/3
f 32/5/3 27/5/3 31/5/3
f 33/4/3 28/4/3 27/4/3
f 33/5/3 27/5/3 32/5/3
f 34/4/3 28/4/3 33/4/3
f 35/2/3 30/2/3 29/2/3
f 36/1/3 31/1/3 30/1/3
f 36/2/3 30/2/3 35/2/3
f 37/4/3 32/4/3 31/4/3
f 37/1/3 31/1/3 36/1/3
f 38/5/3 33/5/3 32/5/3
f 38/4/3 32/4/3 37/4/3
f 39/3/3 34/3/3 33/3/3
f 39/5/3 33/5/3 38/5/3
f 40/3/3 34/3/3 39/3/3
f 41/1/4 42/1/4 44/1/4
f 42/5/4 43/5/4 44/5/4
f 44/5/4 43/5/4 45/5/4
f 45/5/4 43/5/4 46/5/4
f 46/5/4 43/5/4 47/5/4
f 41/1/4 44/1/4 48/1/4
f 44/4/4 45/4/4 49/4/4
f 48/1/4 44/1/4 49/1/4
f 45/5/4 46/5/4 50/5/4
f 49/4/4 45/4/4 50/4/4
f 46/4/4 47/4/4 51/4/4
f 50/5/4 46/5/4 51/5/4
f 51/4/4 47/4/4 52/4/4
f 56/1/5 54/1/5 53/1/5
f 56/2/5 55/2/5 54/2/5
f 57/2/5 55/2/5 56/2/5
f 58/1/5 56/1/5 53/1/5
f 58/1/5 57/1/5 56/1/5
f 59/1/5 57/1/5 58/1/5
f 60/4/6 61/4/6 63/4/6
f 61/3/6 62/3/6 64/3/6
f 63/4/6 61/4/6 64/4/6
f 64/3/6 62/3/6 65/3/6
f 63/5/6 64/5/6 66/5/6
f 64/4/6 65/4/6 67/4/6
f 66/5/6 64/5/6 67/5/6
f 67/4/6 65/4/6 68/4/6
