# MagicaVoxel @ Ephtracy

# group
o 

# material
mtllib monster-0.mtl
usemtl palette

# normals
vn -1 0 0
vn 1 0 0
vn 0 0 1
vn 0 0 -1
vn 0 -1 0
vn 0 1 0

# texcoords
vt 0.744141 0.5
vt 0.861328 0.5
vt 0.873047 0.5
vt 0.900391 0.5
vt 0.908203 0.5
vt 0.962891 0.5
vt 0.990234 0.5
vt 0.994141 0.5

# verts
v -0.5 0.9 0.1
v -0.5 0.9 -0.1
v -0.5 1 0.2
v -0.5 1 0.1
v -0.5 1 -0.1
v -0.5 1 -0.2
v -0.5 1.2 0.2
v -0.5 1.2 0.1
v -0.5 1.2 -0.1
v -0.5 1.2 -0.2
v -0.5 1.3 0.1
v -0.5 1.3 -0.1
v -0.4 0.8 0.1
v -0.4 0.8 -0.1
v -0.4 0.9 0.2
v -0.4 0.9 0.1
v -0.4 0.9 -0.1
v -0.4 0.9 -0.2
v -0.4 1 0.3
v -0.4 1 0.2
v -0.4 1 0.1
v -0.4 1 -0.1
v -0.4 1 -0.2
v -0.4 1 -0.3
v -0.4 1.1 0.3
v -0.4 1.1 0.2
v -0.4 1.1 -0.2
v -0.4 1.1 -0.3
v -0.4 1.2 0.3
v -0.4 1.2 0.2
v -0.4 1.2 0.1
v -0.4 1.2 -0.1
v -0.4 1.2 -0.2
v -0.4 1.2 -0.3
v -0.4 1.3 0.2
v -0.4 1.3 0.1
v -0.4 1.3 -0.1
v -0.4 1.3 -0.2
v -0.4 1.4 0.1
v -0.4 1.4 -0.1
v -0.3 0.8 0.2
v -0.3 0.8 0.1
v -0.3 0.8 -0.1
v -0.3 0.8 -0.2
v -0.3 0.9 0.3
v -0.3 0.9 0.2
v -0.3 0.9 0.1
v -0.3 0.9 -0.1
v -0.3 0.9 -0.2
v -0.3 0.9 -0.3
v -0.3 1 0.3
v -0.3 1 0.2
v -0.3 1 -0.2
v -0.3 1 -0.3
v -0.3 1.2 0.3
v -0.3 1.2 0.2
v -0.3 1.2 -0.2
v -0.3 1.2 -0.3
v -0.3 1.3 0.3
v -0.3 1.3 0.2
v -0.3 1.3 0.1
v -0.3 1.3 -0.1
v -0.3 1.3 -0.2
v -0.3 1.3 -0.3
v -0.3 1.4 0.2
v -0.3 1.4 0.1
v -0.3 1.4 -0.1
v -0.3 1.4 -0.2
v -0.2 0.7 0
v -0.2 0.7 -0.2
v -0.2 0.8 0
v -0.2 0.8 -0.2
v -0.1 0.7 0.2
v -0.1 0.7 0.1
v -0.1 0.7 0
v -0.1 0.7 -0.2
v -0.1 0.7 -0.3
v -0.1 0.8 0.2
v -0.1 0.8 0.1
v -0.1 0.8 0
v -0.1 0.9 -0.2
v -0.1 0.9 -0.3
v -0.1 1 0.3
v -0.1 1 0.2
v -0.1 1.1 0.3
v -0.1 1.1 0.2
v -0.1 1.2 0.3
v -0.1 1.2 0.2
v 0.1 0.8 0.2
v 0.1 0.8 0.1
v 0.1 0.9 0.3
v 0.1 0.9 0.2
v 0.1 1 0.3
v 0.1 1 0.1
v 0.1 1.2 0.3
v 0.1 1.2 0.2
v 0.1 1.3 0.3
v 0.1 1.3 0.2
v 0.1 1.3 0.1
v 0.1 1.4 0.2
v 0.1 1.4 0.1
v 0.3 1 0.3
v 0.3 1 0.2
v 0.3 1.1 0.3
v 0.3 1.1 0.2
v 0.3 1.2 0.3
v 0.3 1.2 0.2
v -0.3 1 0.3
v -0.3 1 0.2
v -0.3 1.1 0.3
v -0.3 1.1 0.2
v -0.3 1.2 0.3
v -0.3 1.2 0.2
v -0.1 0.8 0.2
v -0.1 0.8 0.1
v -0.1 0.9 0.3
v -0.1 0.9 0.2
v -0.1 1 0.3
v -0.1 1 0.2
v -0.1 1 0.1
v -0.1 1.2 0.3
v -0.1 1.2 0.2
v -0.1 1.3 0.3
v -0.1 1.3 0.2
v -0.1 1.3 0.1
v -0.1 1.4 0.2
v -0.1 1.4 0.1
v 0.1 0.7 0.2
v 0.1 0.7 0.1
v 0.1 0.7 0
v 0.1 0.7 -0.2
v 0.1 0.7 -0.3
v 0.1 0.8 0.2
v 0.1 0.8 0.1
v 0.1 0.8 0
v 0.1 0.8 -0.2
v 0.1 0.8 -0.3
v 0.1 0.9 -0.2
v 0.1 0.9 -0.3
v 0.1 1 0.3
v 0.1 1 0.2
v 0.1 1.1 0.2
v 0.1 1.2 0.3
v 0.1 1.2 0.2
v 0.2 0.7 0
v 0.2 0.7 -0.2
v 0.2 0.8 0
v 0.2 0.8 -0.1
v 0.2 0.8 -0.2
v 0.3 0.8 0.2
v 0.3 0.8 0.1
v 0.3 0.8 -0.1
v 0.3 0.8 -0.2
v 0.3 0.9 0.3
v 0.3 0.9 0.2
v 0.3 0.9 0.1
v 0.3 0.9 -0.1
v 0.3 0.9 -0.2
v 0.3 0.9 -0.3
v 0.3 1 0.3
v 0.3 1 0.2
v 0.3 1 -0.2
v 0.3 1 -0.3
v 0.3 1.2 0.3
v 0.3 1.2 0.2
v 0.3 1.2 -0.2
v 0.3 1.2 -0.3
v 0.3 1.3 0.3
v 0.3 1.3 0.2
v 0.3 1.3 0.1
v 0.3 1.3 -0.1
v 0.3 1.3 -0.2
v 0.3 1.3 -0.3
v 0.3 1.4 0.2
v 0.3 1.4 0.1
v 0.3 1.4 -0.1
v 0.3 1.4 -0.2
v 0.4 0.8 0.1
v 0.4 0.8 -0.1
v 0.4 0.9 0.2
v 0.4 0.9 0.1
v 0.4 0.9 -0.1
v 0.4 0.9 -0.2
v 0.4 1 0.3
v 0.4 1 0.2
v 0.4 1 0.1
v 0.4 1 -0.1
v 0.4 1 -0.2
v 0.4 1 -0.3
v 0.4 1.1 0.3
v 0.4 1.1 0.2
v 0.4 1.1 -0.2
v 0.4 1.1 -0.3
v 0.4 1.2 0.3
v 0.4 1.2 0.2
v 0.4 1.2 0.1
v 0.4 1.2 -0.1
v 0.4 1.2 -0.2
v 0.4 1.2 -0.3
v 0.4 1.3 0.2
v 0.4 1.3 0.1
v 0.4 1.3 -0.1
v 0.4 1.3 -0.2
v 0.4 1.4 0.1
v 0.4 1.4 -0.1
v 0.5 0.9 0.1
v 0.5 0.9 -0.1
v 0.5 1 0.2
v 0.5 1 0.1
v 0.5 1 -0.1
v 0.5 1 -0.2
v 0.5 1.2 0.2
v 0.5 1.2 0.1
v 0.5 1.2 -0.1
v 0.5 1.2 -0.2
v 0.5 1.3 0.1
v 0.5 1.3 -0.1
v -0.4 1 0.3
v -0.4 1.1 0.3
v -0.4 1.2 0.3
v -0.3 0.9 0.3
v -0.3 1 0.3
v -0.3 1.1 0.3
v -0.3 1.2 0.3
v -0.3 1.3 0.3
v -0.2 0.9 0.3
v -0.2 1 0.3
v -0.2 1.2 0.3
v -0.2 1.3 0.3
v -0.1 0.9 0.3
v -0.1 1 0.3
v -0.1 1.1 0.3
v -0.1 1.2 0.3
v -0.1 1.3 0.3
v 0 1.1 0.3
v 0 1.2 0.3
v 0.1 0.9 0.3
v 0.1 1 0.3
v 0.1 1.2 0.3
v 0.1 1.3 0.3
v 0.2 0.9 0.3
v 0.2 1 0.3
v 0.2 1.2 0.3
v 0.2 1.3 0.3
v 0.3 0.9 0.3
v 0.3 1 0.3
v 0.3 1.1 0.3
v 0.3 1.2 0.3
v 0.3 1.3 0.3
v 0.4 1 0.3
v 0.4 1.1 0.3
v 0.4 1.2 0.3
v -0.5 1 0.2
v -0.5 1.2 0.2
v -0.4 0.9 0.2
v -0.4 1 0.2
v -0.4 1.1 0.2
v -0.4 1.2 0.2
v -0.4 1.3 0.2
v -0.3 0.8 0.2
v -0.3 0.9 0.2
v -0.3 1 0.2
v -0.3 1.1 0.2
v -0.3 1.2 0.2
v -0.3 1.3 0.2
v -0.3 1.4 0.2
v -0.2 0.9 0.2
v -0.2 1 0.2
v -0.2 1.1 0.2
v -0.2 1.2 0.2
v -0.2 1.3 0.2
v -0.1 0.7 0.2
v -0.1 0.8 0.2
v -0.1 0.9 0.2
v -0.1 1 0.2
v -0.1 1.1 0.2
v -0.1 1.2 0.2
v -0.1 1.3 0.2
v -0.1 1.4 0.2
v 0 0.7 0.2
v 0 0.8 0.2
v 0 1.2 0.2
v 0.1 0.7 0.2
v 0.1 0.8 0.2
v 0.1 0.9 0.2
v 0.1 1 0.2
v 0.1 1.1 0.2
v 0.1 1.2 0.2
v 0.1 1.3 0.2
v 0.1 1.4 0.2
v 0.2 0.9 0.2
v 0.2 1 0.2
v 0.2 1.1 0.2
v 0.2 1.2 0.2
v 0.2 1.3 0.2
v 0.3 0.8 0.2
v 0.3 0.9 0.2
v 0.3 1 0.2
v 0.3 1.1 0.2
v 0.3 1.2 0.2
v 0.3 1.3 0.2
v 0.3 1.4 0.2
v 0.4 0.9 0.2
v 0.4 1 0.2
v 0.4 1.1 0.2
v 0.4 1.2 0.2
v 0.4 1.3 0.2
v 0.5 1 0.2
v 0.5 1.2 0.2
v -0.5 0.9 0.1
v -0.5 1 0.1
v -0.5 1.2 0.1
v -0.5 1.3 0.1
v -0.4 0.8 0.1
v -0.4 0.9 0.1
v -0.4 1 0.1
v -0.4 1.2 0.1
v -0.4 1.3 0.1
v -0.4 1.4 0.1
v -0.3 0.8 0.1
v -0.3 0.9 0.1
v -0.3 1.3 0.1
v -0.3 1.4 0.1
v -0.1 0.8 0.1
v -0.1 1 0.1
v -0.1 1.3 0.1
v -0.1 1.4 0.1
v 0 0.8 0.1
v 0 1.3 0.1
v 0 1.4 0.1
v 0.1 0.8 0.1
v 0.1 1 0.1
v 0.1 1.3 0.1
v 0.1 1.4 0.1
v 0.3 0.8 0.1
v 0.3 0.9 0.1
v 0.3 1.3 0.1
v 0.3 1.4 0.1
v 0.4 0.8 0.1
v 0.4 0.9 0.1
v 0.4 1 0.1
v 0.4 1.2 0.1
v 0.4 1.3 0.1
v 0.4 1.4 0.1
v 0.5 0.9 0.1
v 0.5 1 0.1
v 0.5 1.2 0.1
v 0.5 1.3 0.1
v -0.2 0.7 0
v -0.2 0.8 0
v -0.1 0.7 0
v -0.1 0.8 0
v 0.1 0.7 0
v 0.1 0.8 0
v 0.2 0.7 0
v 0.2 0.8 0
v -0.5 0.9 -0.1
v -0.5 1 -0.1
v -0.5 1.2 -0.1
v -0.5 1.3 -0.1
v -0.4 0.8 -0.1
v -0.4 0.9 -0.1
v -0.4 1 -0.1
v -0.4 1.2 -0.1
v -0.4 1.3 -0.1
v -0.4 1.4 -0.1
v -0.3 0.8 -0.1
v -0.3 0.9 -0.1
v -0.3 1.3 -0.1
v -0.3 1.4 -0.1
v 0.3 0.8 -0.1
v 0.3 0.9 -0.1
v 0.3 1.3 -0.1
v 0.3 1.4 -0.1
v 0.4 0.8 -0.1
v 0.4 0.9 -0.1
v 0.4 1 -0.1
v 0.4 1.2 -0.1
v 0.4 1.3 -0.1
v 0.4 1.4 -0.1
v 0.5 0.9 -0.1
v 0.5 1 -0.1
v 0.5 1.2 -0.1
v 0.5 1.3 -0.1
v -0.5 1 -0.2
v -0.5 1.2 -0.2
v -0.4 0.9 -0.2
v -0.4 1 -0.2
v -0.4 1.1 -0.2
v -0.4 1.2 -0.2
v -0.4 1.3 -0.2
v -0.3 0.8 -0.2
v -0.3 0.9 -0.2
v -0.3 1 -0.2
v -0.3 1.2 -0.2
v -0.3 1.3 -0.2
v -0.3 1.4 -0.2
v -0.2 0.7 -0.2
v -0.2 0.8 -0.2
v -0.2 1.3 -0.2
v -0.2 1.4 -0.2
v -0.1 0.7 -0.2
v -0.1 0.9 -0.2
v -0.1 1.3 -0.2
v 0 1.3 -0.2
v 0.1 0.7 -0.2
v 0.1 0.8 -0.2
v 0.1 0.9 -0.2
v 0.1 1.3 -0.2
v 0.2 0.7 -0.2
v 0.2 0.8 -0.2
v 0.2 0.9 -0.2
v 0.3 0.8 -0.2
v 0.3 0.9 -0.2
v 0.3 1 -0.2
v 0.3 1.2 -0.2
v 0.3 1.3 -0.2
v 0.3 1.4 -0.2
v 0.4 0.9 -0.2
v 0.4 1 -0.2
v 0.4 1.1 -0.2
v 0.4 1.2 -0.2
v 0.4 1.3 -0.2
v 0.5 1 -0.2
v 0.5 1.2 -0.2
v -0.4 1 -0.3
v -0.4 1.1 -0.3
v -0.4 1.2 -0.3
v -0.3 0.9 -0.3
v -0.3 1 -0.3
v -0.3 1.1 -0.3
v -0.3 1.2 -0.3
v -0.3 1.3 -0.3
v -0.2 1 -0.3
v -0.2 1.1 -0.3
v -0.2 1.2 -0.3
v -0.2 1.3 -0.3
v -0.1 0.7 -0.3
v -0.1 0.9 -0.3
v -0.1 1 -0.3
v -0.1 1.2 -0.3
v -0.1 1.3 -0.3
v 0 0.7 -0.3
v 0 0.8 -0.3
v 0 0.9 -0.3
v 0 1 -0.3
v 0 1.2 -0.3
v 0 1.3 -0.3
v 0.1 0.7 -0.3
v 0.1 0.8 -0.3
v 0.1 0.9 -0.3
v 0.1 1.1 -0.3
v 0.1 1.2 -0.3
v 0.1 1.3 -0.3
v 0.2 1.1 -0.3
v 0.2 1.2 -0.3
v 0.3 0.9 -0.3
v 0.3 1 -0.3
v 0.3 1.1 -0.3
v 0.3 1.2 -0.3
v 0.3 1.3 -0.3
v 0.4 1 -0.3
v 0.4 1.1 -0.3
v 0.4 1.2 -0.3
v -0.1 0.7 0.2
v 0 0.7 0.2
v 0.1 0.7 0.2
v -0.1 0.7 0.1
v 0 0.7 0.1
v 0.1 0.7 0.1
v -0.2 0.7 0
v -0.1 0.7 0
v 0.1 0.7 0
v 0.2 0.7 0
v -0.2 0.7 -0.2
v -0.1 0.7 -0.2
v 0 0.7 -0.2
v 0.1 0.7 -0.2
v 0.2 0.7 -0.2
v -0.1 0.7 -0.3
v 0 0.7 -0.3
v 0.1 0.7 -0.3
v -0.3 0.8 0.2
v -0.1 0.8 0.2
v 0.1 0.8 0.2
v 0.3 0.8 0.2
v -0.4 0.8 0.1
v -0.3 0.8 0.1
v -0.1 0.8 0.1
v 0.1 0.8 0.1
v 0.3 0.8 0.1
v 0.4 0.8 0.1
v -0.2 0.8 0
v -0.1 0.8 0
v 0.1 0.8 0
v 0.2 0.8 0
v -0.4 0.8 -0.1
v -0.3 0.8 -0.1
v 0.2 0.8 -0.1
v 0.3 0.8 -0.1
v 0.4 0.8 -0.1
v -0.3 0.8 -0.2
v -0.2 0.8 -0.2
v 0.2 0.8 -0.2
v 0.3 0.8 -0.2
v -0.3 0.9 0.3
v -0.2 0.9 0.3
v -0.1 0.9 0.3
v 0.1 0.9 0.3
v 0.2 0.9 0.3
v 0.3 0.9 0.3
v -0.4 0.9 0.2
v -0.3 0.9 0.2
v -0.2 0.9 0.2
v -0.1 0.9 0.2
v 0.1 0.9 0.2
v 0.2 0.9 0.2
v 0.3 0.9 0.2
v 0.4 0.9 0.2
v -0.5 0.9 0.1
v -0.4 0.9 0.1
v -0.3 0.9 0.1
v 0.3 0.9 0.1
v 0.4 0.9 0.1
v 0.5 0.9 0.1
v -0.5 0.9 -0.1
v -0.4 0.9 -0.1
v -0.3 0.9 -0.1
v 0.3 0.9 -0.1
v 0.4 0.9 -0.1
v 0.5 0.9 -0.1
v -0.4 0.9 -0.2
v -0.3 0.9 -0.2
v -0.1 0.9 -0.2
v 0.1 0.9 -0.2
v 0.2 0.9 -0.2
v 0.3 0.9 -0.2
v 0.4 0.9 -0.2
v -0.3 0.9 -0.3
v -0.1 0.9 -0.3
v 0.1 0.9 -0.3
v 0.3 0.9 -0.3
v -0.4 1 0.3
v -0.3 1 0.3
v -0.1 1 0.3
v 0.1 1 0.3
v 0.3 1 0.3
v 0.4 1 0.3
v -0.5 1 0.2
v -0.4 1 0.2
v -0.3 1 0.2
v -0.1 1 0.2
v 0.3 1 0.2
v 0.4 1 0.2
v 0.5 1 0.2
v -0.5 1 0.1
v -0.4 1 0.1
v -0.1 1 0.1
v 0.1 1 0.1
v 0.4 1 0.1
v 0.5 1 0.1
v -0.5 1 -0.1
v -0.4 1 -0.1
v 0.4 1 -0.1
v 0.5 1 -0.1
v -0.5 1 -0.2
v -0.4 1 -0.2
v -0.3 1 -0.2
v 0.3 1 -0.2
v 0.4 1 -0.2
v 0.5 1 -0.2
v -0.4 1 -0.3
v -0.3 1 -0.3
v 0.3 1 -0.3
v 0.4 1 -0.3
v -0.3 1.2 0.3
v -0.2 1.2 0.3
v -0.1 1.2 0.3
v 0.1 1.2 0.3
v 0.2 1.2 0.3
v 0.3 1.2 0.3
v -0.3 1.2 0.2
v -0.2 1.2 0.2
v -0.1 1.2 0.2
v 0.1 1.2 0.2
v 0.2 1.2 0.2
v 0.3 1.2 0.2
v -0.1 0.8 0.2
v 0 0.8 0.2
v 0.1 0.8 0.2
v -0.1 0.8 0.1
v 0 0.8 0.1
v 0.1 0.8 0.1
v -0.3 1 0.3
v -0.2 1 0.3
v -0.1 1 0.3
v 0.1 1 0.3
v 0.2 1 0.3
v 0.3 1 0.3
v -0.3 1 0.2
v -0.2 1 0.2
v -0.1 1 0.2
v 0.1 1 0.2
v 0.2 1 0.2
v 0.3 1 0.2
v -0.4 1.2 0.3
v -0.3 1.2 0.3
v -0.1 1.2 0.3
v 0 1.2 0.3
v 0.1 1.2 0.3
v 0.3 1.2 0.3
v 0.4 1.2 0.3
v -0.5 1.2 0.2
v -0.4 1.2 0.2
v -0.3 1.2 0.2
v -0.1 1.2 0.2
v 0 1.2 0.2
v 0.1 1.2 0.2
v 0.3 1.2 0.2
v 0.4 1.2 0.2
v 0.5 1.2 0.2
v -0.5 1.2 0.1
v -0.4 1.2 0.1
v 0.4 1.2 0.1
v 0.5 1.2 0.1
v -0.5 1.2 -0.1
v -0.4 1.2 -0.1
v 0.4 1.2 -0.1
v 0.5 1.2 -0.1
v -0.5 1.2 -0.2
v -0.4 1.2 -0.2
v -0.3 1.2 -0.2
v 0.3 1.2 -0.2
v 0.4 1.2 -0.2
v 0.5 1.2 -0.2
v -0.4 1.2 -0.3
v -0.3 1.2 -0.3
v 0.3 1.2 -0.3
v 0.4 1.2 -0.3
v -0.3 1.3 0.3
v -0.2 1.3 0.3
v -0.1 1.3 0.3
v 0.1 1.3 0.3
v 0.2 1.3 0.3
v 0.3 1.3 0.3
v -0.4 1.3 0.2
v -0.3 1.3 0.2
v -0.2 1.3 0.2
v -0.1 1.3 0.2
v 0.1 1.3 0.2
v 0.2 1.3 0.2
v 0.3 1.3 0.2
v 0.4 1.3 0.2
v -0.5 1.3 0.1
v -0.4 1.3 0.1
v -0.3 1.3 0.1
v -0.1 1.3 0.1
v 0 1.3 0.1
v 0.1 1.3 0.1
v 0.3 1.3 0.1
v 0.4 1.3 0.1
v 0.5 1.3 0.1
v -0.5 1.3 -0.1
v -0.4 1.3 -0.1
v -0.3 1.3 -0.1
v 0.3 1.3 -0.1
v 0.4 1.3 -0.1
v 0.5 1.3 -0.1
v -0.4 1.3 -0.2
v -0.3 1.3 -0.2
v -0.2 1.3 -0.2
v -0.1 1.3 -0.2
v 0 1.3 -0.2
v 0.1 1.3 -0.2
v 0.3 1.3 -0.2
v 0.4 1.3 -0.2
v -0.3 1.3 -0.3
v -0.2 1.3 -0.3
v -0.1 1.3 -0.3
v 0 1.3 -0.3
v 0.1 1.3 -0.3
v 0.3 1.3 -0.3
v -0.3 1.4 0.2
v -0.1 1.4 0.2
v 0.1 1.4 0.2
v 0.3 1.4 0.2
v -0.4 1.4 0.1
v -0.3 1.4 0.1
v -0.1 1.4 0.1
v 0 1.4 0.1
v 0.1 1.4 0.1
v 0.2 1.4 0.1
v 0.3 1.4 0.1
v 0.4 1.4 0.1
v -0.1 1.4 0
v 0 1.4 0
v 0.1 1.4 0
v 0.2 1.4 0
v 0.3 1.4 0
v -0.4 1.4 -0.1
v -0.3 1.4 -0.1
v -0.2 1.4 -0.1
v 0 1.4 -0.1
v 0.1 1.4 -0.1
v 0.2 1.4 -0.1
v 0.3 1.4 -0.1
v 0.4 1.4 -0.1
v -0.3 1.4 -0.2
v -0.2 1.4 -0.2
v 0.3 1.4 -0.2

# faces
f 4/5/1 2/5/1 1/5/1
f 5/5/1 2/5/1 4/5/1
f 7/5/1 4/5/1 3/5/1
f 7/5/1 6/5/1 5/5/1
f 7/5/1 5/5/1 4/5/1
f 8/5/1 6/5/1 7/5/1
f 9/5/1 6/5/1 8/5/1
f 10/5/1 6/5/1 9/5/1
f 11/5/1 9/5/1 8/5/1
f 12/5/1 9/5/1 11/5/1
f 16/5/1 14/5/1 13/5/1
f 17/5/1 14/5/1 16/5/1
f 20/5/1 16/5/1 15/5/1
f 21/5/1 16/5/1 20/5/1
f 22/5/1 18/5/1 17/5/1
f 23/5/1 18/5/1 22/5/1
f 25/4/1 20/4/1 19/4/1
f 26/4/1 20/4/1 25/4/1
f 27/1/1 24/1/1 23/1/1
f 28/1/1 24/1/1 27/1/1
f 29/5/1 26/5/1 25/5/1
f 30/5/1 26/5/1 29/5/1
f 33/5/1 28/5/1 27/5/1
f 34/5/1 28/5/1 33/5/1
f 35/5/1 31/5/1 30/5/1
f 36/5/1 31/5/1 35/5/1
f 37/5/1 33/5/1 32/5/1
f 38/5/1 33/5/1 37/5/1
f 39/5/1 37/5/1 36/5/1
f 40/5/1 37/5/1 39/5/1
f 46/5/1 42/5/1 41/5/1
f 47/5/1 42/5/1 46/5/1
f 48/5/1 44/5/1 43/5/1
f 49/5/1 44/5/1 48/5/1
f 51/5/1 46/5/1 45/5/1
f 52/5/1 46/5/1 51/5/1
f 53/5/1 50/5/1 49/5/1
f 54/5/1 50/5/1 53/5/1
f 59/1/1 56/1/1 55/1/1
f 60/1/1 56/1/1 59/1/1
f 63/5/1 58/5/1 57/5/1
f 64/5/1 58/5/1 63/5/1
f 65/5/1 61/5/1 60/5/1
f 66/5/1 61/5/1 65/5/1
f 67/4/1 63/4/1 62/4/1
f 68/4/1 63/4/1 67/4/1
f 71/5/1 70/5/1 69/5/1
f 72/5/1 70/5/1 71/5/1
f 78/8/1 74/8/1 73/8/1
f 79/5/1 75/5/1 74/5/1
f 79/8/1 74/8/1 78/8/1
f 80/5/1 75/5/1 79/5/1
f 81/5/1 77/5/1 76/5/1
f 82/5/1 77/5/1 81/5/1
f 85/5/1 84/5/1 83/5/1
f 86/5/1 84/5/1 85/5/1
f 87/4/1 86/4/1 85/4/1
f 88/4/1 86/4/1 87/4/1
f 92/5/1 90/5/1 89/5/1
f 93/5/1 92/5/1 91/5/1
f 94/5/1 90/5/1 92/5/1
f 94/5/1 92/5/1 93/5/1
f 97/4/1 96/4/1 95/4/1
f 98/4/1 96/4/1 97/4/1
f 100/5/1 99/5/1 98/5/1
f 101/5/1 99/5/1 100/5/1
f 104/5/1 103/5/1 102/5/1
f 105/5/1 103/5/1 104/5/1
f 106/4/1 105/4/1 104/4/1
f 107/4/1 105/4/1 106/4/1
f 108/4/2 109/4/2 110/4/2
f 110/4/2 109/4/2 111/4/2
f 110/5/2 111/5/2 112/5/2
f 112/5/2 111/5/2 113/5/2
f 114/5/2 115/5/2 117/5/2
f 116/4/2 117/4/2 118/4/2
f 117/5/2 115/5/2 119/5/2
f 118/4/2 117/4/2 119/4/2
f 119/5/2 115/5/2 120/5/2
f 121/4/2 122/4/2 123/4/2
f 123/4/2 122/4/2 124/4/2
f 124/5/2 125/5/2 126/5/2
f 126/5/2 125/5/2 127/5/2
f 128/7/2 129/7/2 133/7/2
f 129/5/2 130/5/2 134/5/2
f 133/7/2 129/7/2 134/7/2
f 134/5/2 130/5/2 135/5/2
f 131/4/2 132/4/2 136/4/2
f 136/4/2 132/4/2 137/4/2
f 136/5/2 137/5/2 138/5/2
f 138/5/2 137/5/2 139/5/2
f 140/5/2 141/5/2 142/5/2
f 140/5/2 142/5/2 143/5/2
f 143/5/2 142/5/2 144/5/2
f 145/5/2 146/5/2 147/5/2
f 147/5/2 146/5/2 148/5/2
f 148/5/2 146/5/2 149/5/2
f 150/5/2 151/5/2 155/5/2
f 155/5/2 151/5/2 156/5/2
f 152/4/2 153/4/2 157/4/2
f 157/4/2 153/4/2 158/4/2
f 154/4/2 155/4/2 160/4/2
f 160/4/2 155/4/2 161/4/2
f 158/5/2 159/5/2 162/5/2
f 162/5/2 159/5/2 163/5/2
f 164/5/2 165/5/2 168/5/2
f 168/5/2 165/5/2 169/5/2
f 166/5/2 167/5/2 172/5/2
f 172/5/2 167/5/2 173/5/2
f 169/5/2 170/5/2 174/5/2
f 174/5/2 170/5/2 175/5/2
f 171/5/2 172/5/2 176/5/2
f 176/5/2 172/5/2 177/5/2
f 178/5/2 179/5/2 181/5/2
f 181/5/2 179/5/2 182/5/2
f 180/5/2 181/5/2 185/5/2
f 185/5/2 181/5/2 186/5/2
f 182/5/2 183/5/2 187/5/2
f 187/5/2 183/5/2 188/5/2
f 184/5/2 185/5/2 190/5/2
f 190/5/2 185/5/2 191/5/2
f 188/5/2 189/5/2 192/5/2
f 192/5/2 189/5/2 193/5/2
f 190/4/2 191/4/2 194/4/2
f 194/4/2 191/4/2 195/4/2
f 192/4/2 193/4/2 198/4/2
f 198/4/2 193/4/2 199/4/2
f 195/5/2 196/5/2 200/5/2
f 200/5/2 196/5/2 201/5/2
f 197/5/2 198/5/2 202/5/2
f 202/5/2 198/5/2 203/5/2
f 201/5/2 202/5/2 204/5/2
f 204/5/2 202/5/2 205/5/2
f 206/5/2 207/5/2 209/5/2
f 209/5/2 207/5/2 210/5/2
f 208/5/2 209/5/2 212/5/2
f 210/5/2 211/5/2 212/5/2
f 209/5/2 210/5/2 212/5/2
f 212/5/2 211/5/2 213/5/2
f 213/5/2 211/5/2 214/5/2
f 214/5/2 211/5/2 215/5/2
f 213/5/2 214/5/2 216/5/2
f 216/5/2 214/5/2 217/5/2
f 222/4/3 219/4/3 218/4/3
f 223/5/3 220/5/3 219/5/3
f 223/4/3 219/4/3 222/4/3
f 224/5/3 220/5/3 223/5/3
f 226/5/3 222/5/3 221/5/3
f 227/5/3 222/5/3 226/5/3
f 228/1/3 225/1/3 224/1/3
f 229/1/3 225/1/3 228/1/3
f 230/4/3 227/4/3 226/4/3
f 231/4/3 227/4/3 230/4/3
f 233/4/3 229/4/3 228/4/3
f 234/4/3 229/4/3 233/4/3
f 235/5/3 232/5/3 231/5/3
f 235/4/3 233/4/3 232/4/3
f 236/4/3 233/4/3 235/4/3
f 238/5/3 235/5/3 231/5/3
f 238/5/3 236/5/3 235/5/3
f 239/5/3 236/5/3 238/5/3
f 241/5/3 238/5/3 237/5/3
f 242/5/3 238/5/3 241/5/3
f 243/4/3 240/4/3 239/4/3
f 244/4/3 240/4/3 243/4/3
f 245/4/3 242/4/3 241/4/3
f 246/4/3 242/4/3 245/4/3
f 248/5/3 244/5/3 243/5/3
f 249/5/3 244/5/3 248/5/3
f 250/5/3 247/5/3 246/5/3
f 251/4/3 248/4/3 247/4/3
f 251/5/3 247/5/3 250/5/3
f 252/4/3 248/4/3 251/4/3
f 256/5/3 254/5/3 253/5/3
f 257/5/3 254/5/3 256/5/3
f 258/5/3 254/5/3 257/5/3
f 261/5/3 256/5/3 255/5/3
f 262/5/3 256/5/3 261/5/3
f 264/5/3 259/5/3 258/5/3
f 265/5/3 259/5/3 264/5/3
f 267/5/3 261/5/3 260/5/3
f 268/3/3 263/3/3 262/3/3
f 269/2/3 264/2/3 263/2/3
f 269/3/3 263/3/3 268/3/3
f 270/2/3 264/2/3 269/2/3
f 271/5/3 266/5/3 265/5/3
f 273/5/3 267/5/3 260/5/3
f 274/5/3 267/5/3 273/5/3
f 275/2/3 270/2/3 269/2/3
f 275/2/3 269/2/3 268/2/3
f 276/2/3 270/2/3 275/2/3
f 277/2/3 270/2/3 276/2/3
f 278/5/3 266/5/3 271/5/3
f 279/5/3 266/5/3 278/5/3
f 280/8/3 273/8/3 272/8/3
f 281/8/3 273/8/3 280/8/3
f 282/5/3 278/5/3 277/5/3
f 283/7/3 281/7/3 280/7/3
f 284/7/3 281/7/3 283/7/3
f 288/5/3 278/5/3 282/5/3
f 289/5/3 278/5/3 288/5/3
f 291/5/3 285/5/3 284/5/3
f 292/3/3 287/3/3 286/3/3
f 293/2/3 288/2/3 287/2/3
f 293/3/3 287/3/3 292/3/3
f 294/2/3 288/2/3 293/2/3
f 295/5/3 290/5/3 289/5/3
f 296/5/3 291/5/3 284/5/3
f 297/5/3 291/5/3 296/5/3
f 298/2/3 294/2/3 293/2/3
f 298/2/3 293/2/3 292/2/3
f 299/2/3 294/2/3 298/2/3
f 300/2/3 294/2/3 299/2/3
f 301/5/3 290/5/3 295/5/3
f 302/5/3 290/5/3 301/5/3
f 303/5/3 298/5/3 297/5/3
f 304/5/3 298/5/3 303/5/3
f 306/5/3 301/5/3 300/5/3
f 307/5/3 301/5/3 306/5/3
f 308/5/3 305/5/3 304/5/3
f 308/5/3 306/5/3 305/5/3
f 309/5/3 306/5/3 308/5/3
f 315/5/3 311/5/3 310/5/3
f 316/5/3 311/5/3 315/5/3
f 317/5/3 313/5/3 312/5/3
f 318/5/3 313/5/3 317/5/3
f 320/5/3 315/5/3 314/5/3
f 321/5/3 315/5/3 320/5/3
f 322/5/3 319/5/3 318/5/3
f 323/5/3 319/5/3 322/5/3
f 328/6/3 325/6/3 324/6/3
f 329/4/3 327/4/3 326/4/3
f 330/4/3 327/4/3 329/4/3
f 331/6/3 325/6/3 328/6/3
f 332/6/3 325/6/3 331/6/3
f 333/5/3 330/5/3 329/5/3
f 334/5/3 330/5/3 333/5/3
f 339/5/3 336/5/3 335/5/3
f 340/5/3 336/5/3 339/5/3
f 343/5/3 338/5/3 337/5/3
f 344/5/3 338/5/3 343/5/3
f 345/5/3 341/5/3 340/5/3
f 346/5/3 341/5/3 345/5/3
f 347/5/3 343/5/3 342/5/3
f 348/5/3 343/5/3 347/5/3
f 351/5/3 350/5/3 349/5/3
f 352/5/3 350/5/3 351/5/3
f 355/5/3 354/5/3 353/5/3
f 356/5/3 354/5/3 355/5/3
f 357/5/4 358/5/4 362/5/4
f 362/5/4 358/5/4 363/5/4
f 359/5/4 360/5/4 364/5/4
f 364/5/4 360/5/4 365/5/4
f 361/5/4 362/5/4 367/5/4
f 367/5/4 362/5/4 368/5/4
f 365/5/4 366/5/4 369/5/4
f 369/5/4 366/5/4 370/5/4
f 371/5/4 372/5/4 375/5/4
f 375/5/4 372/5/4 376/5/4
f 373/5/4 374/5/4 379/5/4
f 379/5/4 374/5/4 380/5/4
f 376/5/4 377/5/4 381/5/4
f 381/5/4 377/5/4 382/5/4
f 378/5/4 379/5/4 383/5/4
f 383/5/4 379/5/4 384/5/4
f 385/5/4 386/5/4 388/5/4
f 388/5/4 386/5/4 389/5/4
f 389/5/4 386/5/4 390/5/4
f 387/5/4 388/5/4 393/5/4
f 393/5/4 388/5/4 394/5/4
f 390/5/4 391/5/4 395/5/4
f 395/5/4 391/5/4 396/5/4
f 392/5/4 393/5/4 399/5/4
f 396/4/4 397/4/4 400/4/4
f 400/4/4 397/4/4 401/4/4
f 398/5/4 399/5/4 402/5/4
f 399/5/4 393/5/4 403/5/4
f 402/5/4 399/5/4 403/5/4
f 400/5/4 401/5/4 404/5/4
f 404/5/4 401/5/4 405/5/4
f 405/5/4 401/5/4 409/5/4
f 406/5/4 407/5/4 410/5/4
f 407/1/4 408/1/4 411/1/4
f 410/5/4 407/5/4 411/5/4
f 411/1/4 408/1/4 412/1/4
f 411/4/4 412/4/4 413/4/4
f 413/4/4 412/4/4 414/4/4
f 409/5/4 401/5/4 417/5/4
f 417/5/4 401/5/4 418/5/4
f 414/5/4 415/5/4 419/5/4
f 419/5/4 415/5/4 420/5/4
f 416/5/4 417/5/4 422/5/4
f 422/5/4 417/5/4 423/5/4
f 420/5/4 421/5/4 424/5/4
f 421/5/4 422/5/4 424/5/4
f 424/5/4 422/5/4 425/5/4
f 426/1/4 427/1/4 430/1/4
f 427/5/4 428/5/4 431/5/4
f 430/1/4 427/1/4 431/1/4
f 431/5/4 428/5/4 432/5/4
f 429/5/4 430/5/4 434/5/4
f 430/4/4 431/4/4 434/4/4
f 432/5/4 433/5/4 435/5/4
f 434/4/4 431/4/4 435/4/4
f 431/5/4 432/5/4 435/5/4
f 435/5/4 433/5/4 436/5/4
f 436/5/4 433/5/4 437/5/4
f 429/5/4 434/5/4 439/5/4
f 434/5/4 435/5/4 439/5/4
f 435/5/4 436/5/4 439/5/4
f 439/5/4 436/5/4 440/5/4
f 436/1/4 437/1/4 441/1/4
f 440/5/4 436/5/4 441/5/4
f 441/1/4 437/1/4 442/1/4
f 438/5/4 439/5/4 443/5/4
f 443/5/4 439/5/4 444/5/4
f 439/4/4 440/4/4 445/4/4
f 444/5/4 439/5/4 445/5/4
f 440/5/4 441/5/4 446/5/4
f 445/4/4 440/4/4 446/4/4
f 441/5/4 442/5/4 446/5/4
f 446/5/4 442/5/4 447/5/4
f 447/5/4 442/5/4 448/5/4
f 443/4/4 444/4/4 449/4/4
f 444/5/4 445/5/4 450/5/4
f 449/4/4 444/4/4 450/4/4
f 445/5/4 446/5/4 450/5/4
f 446/5/4 447/5/4 450/5/4
f 450/5/4 447/5/4 451/5/4
f 451/5/4 447/5/4 452/5/4
f 447/4/4 448/4/4 453/4/4
f 452/5/4 447/5/4 453/5/4
f 453/4/4 448/4/4 454/4/4
f 451/5/4 452/5/4 455/5/4
f 452/1/4 453/1/4 455/1/4
f 453/5/4 454/5/4 456/5/4
f 455/1/4 453/1/4 456/1/4
f 451/5/4 455/5/4 457/5/4
f 455/5/4 456/5/4 457/5/4
f 457/5/4 456/5/4 458/5/4
f 458/5/4 456/5/4 459/5/4
f 456/5/4 454/5/4 460/5/4
f 459/5/4 456/5/4 460/5/4
f 460/5/4 454/5/4 461/5/4
f 458/5/4 459/5/4 462/5/4
f 459/4/4 460/4/4 463/4/4
f 462/5/4 459/5/4 463/5/4
f 463/4/4 460/4/4 464/4/4
f 468/8/5 466/8/5 465/8/5
f 469/7/5 467/7/5 466/7/5
f 469/8/5 466/8/5 468/8/5
f 470/7/5 467/7/5 469/7/5
f 472/5/5 469/5/5 468/5/5
f 472/5/5 470/5/5 469/5/5
f 473/5/5 470/5/5 472/5/5
f 475/5/5 473/5/5 472/5/5
f 475/5/5 474/5/5 473/5/5
f 475/5/5 472/5/5 471/5/5
f 476/5/5 474/5/5 475/5/5
f 477/5/5 474/5/5 476/5/5
f 478/5/5 474/5/5 477/5/5
f 479/5/5 474/5/5 478/5/5
f 480/5/5 477/5/5 476/5/5
f 481/4/5 478/4/5 477/4/5
f 481/5/5 477/5/5 480/5/5
f 482/4/5 478/4/5 481/4/5
f 488/5/5 484/5/5 483/5/5
f 489/5/5 484/5/5 488/5/5
f 490/5/5 486/5/5 485/5/5
f 491/5/5 486/5/5 490/5/5
f 493/5/5 489/5/5 488/5/5
f 493/5/5 488/5/5 487/5/5
f 494/5/5 489/5/5 493/5/5
f 495/5/5 492/5/5 491/5/5
f 495/5/5 491/5/5 490/5/5
f 496/5/5 492/5/5 495/5/5
f 497/5/5 493/5/5 487/5/5
f 498/5/5 493/5/5 497/5/5
f 499/5/5 492/5/5 496/5/5
f 500/5/5 492/5/5 499/5/5
f 501/5/5 492/5/5 500/5/5
f 502/5/5 493/5/5 498/5/5
f 503/5/5 493/5/5 502/5/5
f 504/4/5 500/4/5 499/4/5
f 505/4/5 500/4/5 504/4/5
f 513/5/5 507/5/5 506/5/5
f 514/4/5 508/4/5 507/4/5
f 514/5/5 507/5/5 513/5/5
f 515/4/5 508/4/5 514/4/5
f 516/5/5 510/5/5 509/5/5
f 517/4/5 511/4/5 510/4/5
f 517/5/5 510/5/5 516/5/5
f 518/4/5 511/4/5 517/4/5
f 521/5/5 513/5/5 512/5/5
f 522/5/5 513/5/5 521/5/5
f 523/5/5 519/5/5 518/5/5
f 524/5/5 519/5/5 523/5/5
f 526/5/5 521/5/5 520/5/5
f 527/5/5 521/5/5 526/5/5
f 530/5/5 525/5/5 524/5/5
f 531/5/5 525/5/5 530/5/5
f 532/5/5 528/5/5 527/5/5
f 533/5/5 528/5/5 532/5/5
f 537/5/5 530/5/5 529/5/5
f 538/5/5 530/5/5 537/5/5
f 539/5/5 534/5/5 533/5/5
f 540/5/5 534/5/5 539/5/5
f 541/5/5 536/5/5 535/5/5
f 541/5/5 537/5/5 536/5/5
f 542/5/5 537/5/5 541/5/5
f 550/4/5 544/4/5 543/4/5
f 551/4/5 544/4/5 550/4/5
f 552/5/5 546/5/5 545/5/5
f 553/5/5 548/5/5 547/5/5
f 554/5/5 548/5/5 553/5/5
f 556/5/5 550/5/5 549/5/5
f 557/5/5 550/5/5 556/5/5
f 558/5/5 546/5/5 552/5/5
f 559/5/5 546/5/5 558/5/5
f 560/5/5 555/5/5 554/5/5
f 561/5/5 555/5/5 560/5/5
f 566/5/5 563/5/5 562/5/5
f 567/5/5 563/5/5 566/5/5
f 570/5/5 565/5/5 564/5/5
f 571/5/5 565/5/5 570/5/5
f 572/1/5 568/1/5 567/1/5
f 573/1/5 568/1/5 572/1/5
f 574/5/5 570/5/5 569/5/5
f 575/5/5 570/5/5 574/5/5
f 582/1/5 577/1/5 576/1/5
f 583/4/5 578/4/5 577/4/5
f 583/1/5 577/1/5 582/1/5
f 584/4/5 578/4/5 583/4/5
f 585/4/5 580/4/5 579/4/5
f 586/5/5 581/5/5 580/5/5
f 586/4/5 580/4/5 585/4/5
f 587/5/5 581/5/5 586/5/5
f 588/8/6 589/8/6 591/8/6
f 589/7/6 590/7/6 592/7/6
f 591/8/6 589/8/6 592/8/6
f 592/7/6 590/7/6 593/7/6
f 594/5/6 595/5/6 600/5/6
f 595/4/6 596/4/6 601/4/6
f 600/5/6 595/5/6 601/5/6
f 601/4/6 596/4/6 602/4/6
f 597/5/6 598/5/6 603/5/6
f 598/4/6 599/4/6 604/4/6
f 603/5/6 598/5/6 604/5/6
f 604/4/6 599/4/6 605/4/6
f 606/5/6 607/5/6 614/5/6
f 614/5/6 607/5/6 615/5/6
f 608/4/6 609/4/6 616/4/6
f 609/5/6 610/5/6 617/5/6
f 616/4/6 609/4/6 617/4/6
f 617/5/6 610/5/6 618/5/6
f 611/4/6 612/4/6 619/4/6
f 619/4/6 612/4/6 620/4/6
f 613/5/6 614/5/6 622/5/6
f 622/5/6 614/5/6 623/5/6
f 620/5/6 621/5/6 624/5/6
f 624/5/6 621/5/6 625/5/6
f 626/5/6 627/5/6 630/5/6
f 630/5/6 627/5/6 631/5/6
f 628/5/6 629/5/6 634/5/6
f 634/5/6 629/5/6 635/5/6
f 631/5/6 632/5/6 636/5/6
f 636/5/6 632/5/6 637/5/6
f 633/4/6 634/4/6 638/4/6
f 638/4/6 634/4/6 639/4/6
f 640/1/6 641/1/6 647/1/6
f 641/4/6 642/4/6 648/4/6
f 647/1/6 641/1/6 648/1/6
f 648/4/6 642/4/6 649/4/6
f 643/4/6 644/4/6 650/4/6
f 644/5/6 645/5/6 651/5/6
f 650/4/6 644/4/6 651/4/6
f 651/5/6 645/5/6 652/5/6
f 646/5/6 647/5/6 655/5/6
f 655/5/6 647/5/6 656/5/6
f 649/5/6 650/5/6 657/5/6
f 657/5/6 650/5/6 658/5/6
f 658/5/6 650/5/6 659/5/6
f 652/5/6 653/5/6 660/5/6
f 660/5/6 653/5/6 661/5/6
f 654/5/6 655/5/6 663/5/6
f 663/5/6 655/5/6 664/5/6
f 661/5/6 662/5/6 667/5/6
f 667/5/6 662/5/6 668/5/6
f 664/5/6 665/5/6 669/5/6
f 669/5/6 665/5/6 670/5/6
f 666/5/6 667/5/6 675/5/6
f 675/5/6 667/5/6 676/5/6
f 670/5/6 671/5/6 677/5/6
f 671/1/6 672/1/6 678/1/6
f 677/5/6 671/5/6 678/5/6
f 672/5/6 673/5/6 679/5/6
f 678/1/6 672/1/6 679/1/6
f 673/4/6 674/4/6 680/4/6
f 679/5/6 673/5/6 680/5/6
f 674/5/6 675/5/6 681/5/6
f 680/4/6 674/4/6 681/4/6
f 681/5/6 675/5/6 682/5/6
f 683/5/6 684/5/6 688/5/6
f 688/5/6 684/5/6 689/5/6
f 685/5/6 686/5/6 691/5/6
f 691/5/6 686/5/6 692/5/6
f 692/5/6 686/5/6 693/5/6
f 689/4/6 690/4/6 695/4/6
f 687/5/6 688/5/6 695/5/6
f 688/5/6 689/5/6 695/5/6
f 691/5/6 692/5/6 696/5/6
f 695/4/6 690/4/6 696/4/6
f 690/5/6 691/5/6 696/5/6
f 696/5/6 692/5/6 697/5/6
f 692/4/6 693/4/6 698/4/6
f 697/5/6 692/5/6 698/5/6
f 693/5/6 694/5/6 699/5/6
f 698/4/6 693/4/6 699/4/6
f 687/5/6 695/5/6 700/5/6
f 695/5/6 696/5/6 700/5/6
f 700/5/6 696/5/6 701/5/6
f 701/5/6 696/5/6 702/5/6
f 696/4/6 697/4/6 703/4/6
f 702/5/6 696/5/6 703/5/6
f 697/1/6 698/1/6 704/1/6
f 703/4/6 697/4/6 704/4/6
f 698/5/6 699/5/6 705/5/6
f 704/1/6 698/1/6 705/1/6
f 699/5/6 694/5/6 706/5/6
f 705/5/6 699/5/6 706/5/6
f 706/5/6 694/5/6 707/5/6
f 701/4/6 702/4/6 708/4/6
f 702/5/6 703/5/6 709/5/6
f 708/4/6 702/4/6 709/4/6
f 704/5/6 705/5/6 709/5/6
f 705/5/6 706/5/6 709/5/6
f 703/5/6 704/5/6 709/5/6
f 709/5/6 706/5/6 710/5/6
