# MagicaVoxel @ Ephtracy

# group
o 

# material
mtllib monster-5.mtl
usemtl palette

# normals
vn -1 0 0
vn 1 0 0
vn 0 0 1
vn 0 0 -1
vn 0 -1 0
vn 0 1 0

# texcoords
vt 0.537109 0.5
vt 0.701172 0.5
vt 0.744141 0.5
vt 0.857422 0.5
vt 0.900391 0.5
vt 0.908203 0.5

# verts
v -0.3 0.2 0
v -0.3 0.2 -0.2
v -0.3 0.2 -0.3
v -0.3 0.3 0
v -0.3 0.3 -0.1
v -0.3 0.3 -0.2
v -0.3 0.3 -0.3
v -0.3 0.4 -0.1
v -0.3 0.4 -0.2
v -0.3 0.4 -0.3
v -0.3 0.4 -0.4
v -0.3 0.5 0
v -0.3 0.5 -0.1
v -0.3 0.5 -0.3
v -0.3 0.5 -0.4
v -0.3 0.6 0
v -0.3 0.6 -0.1
v -0.3 0.6 -0.3
v -0.3 0.6 -0.4
v -0.3 0.7 -0.1
v -0.3 0.7 -0.3
v -0.2 0.3 0
v -0.2 0.3 -0.1
v -0.2 0.4 -0.1
v -0.2 0.5 0
v -0.2 0.5 -0.1
v -0.1 0.6 0
v -0.1 0.6 -0.1
v -0.1 0.6 -0.3
v -0.1 0.6 -0.4
v -0.1 0.7 0
v -0.1 0.7 -0.1
v -0.1 0.7 -0.3
v -0.1 0.7 -0.4
v 0.2 0.4 -0.3
v 0.2 0.4 -0.4
v 0.2 0.5 -0.3
v 0.2 0.5 -0.4
v 0.2 0.6 -0.3
v 0.2 0.6 -0.4
v -0.2 0.4 -0.3
v -0.2 0.4 -0.4
v -0.2 0.5 -0.3
v -0.2 0.5 -0.4
v -0.2 0.6 -0.3
v -0.2 0.6 -0.4
v 0.1 0.6 0
v 0.1 0.6 -0.1
v 0.1 0.6 -0.3
v 0.1 0.6 -0.4
v 0.1 0.7 0
v 0.1 0.7 -0.1
v 0.1 0.7 -0.3
v 0.1 0.7 -0.4
v 0.2 0.3 0
v 0.2 0.3 -0.1
v 0.2 0.4 0
v 0.2 0.4 -0.1
v 0.2 0.5 0
v 0.2 0.5 -0.1
v 0.3 0.2 0
v 0.3 0.2 -0.2
v 0.3 0.2 -0.3
v 0.3 0.3 0
v 0.3 0.3 -0.1
v 0.3 0.3 -0.2
v 0.3 0.3 -0.3
v 0.3 0.4 -0.1
v 0.3 0.4 -0.2
v 0.3 0.4 -0.3
v 0.3 0.4 -0.4
v 0.3 0.5 0
v 0.3 0.5 -0.1
v 0.3 0.5 -0.2
v 0.3 0.5 -0.3
v 0.3 0.5 -0.4
v 0.3 0.6 0
v 0.3 0.6 -0.1
v 0.3 0.6 -0.2
v 0.3 0.6 -0.3
v 0.3 0.6 -0.4
v 0.3 0.7 -0.1
v 0.3 0.7 -0.2
v 0.3 0.7 -0.3
v -0.3 0.2 0
v -0.3 0.3 0
v -0.3 0.5 0
v -0.3 0.6 0
v -0.2 0.2 0
v -0.2 0.3 0
v -0.2 0.5 0
v -0.1 0.5 0
v -0.1 0.6 0
v -0.1 0.7 0
v 0 0.2 0
v 0 0.4 0
v 0 0.5 0
v 0 0.6 0
v 0.1 0.2 0
v 0.1 0.4 0
v 0.1 0.5 0
v 0.1 0.6 0
v 0.1 0.7 0
v 0.2 0.2 0
v 0.2 0.3 0
v 0.2 0.4 0
v 0.2 0.5 0
v 0.3 0.2 0
v 0.3 0.3 0
v 0.3 0.5 0
v 0.3 0.6 0
v -0.3 0.3 -0.1
v -0.3 0.4 -0.1
v -0.3 0.5 -0.1
v -0.3 0.6 -0.1
v -0.3 0.7 -0.1
v -0.2 0.3 -0.1
v -0.2 0.4 -0.1
v -0.2 0.5 -0.1
v -0.2 0.6 -0.1
v -0.2 0.7 -0.1
v -0.1 0.6 -0.1
v -0.1 0.7 -0.1
v 0.1 0.6 -0.1
v 0.1 0.7 -0.1
v 0.2 0.3 -0.1
v 0.2 0.4 -0.1
v 0.2 0.5 -0.1
v 0.2 0.6 -0.1
v 0.2 0.7 -0.1
v 0.3 0.3 -0.1
v 0.3 0.4 -0.1
v 0.3 0.5 -0.1
v 0.3 0.6 -0.1
v 0.3 0.7 -0.1
v -0.3 0.2 -0.3
v -0.3 0.3 -0.3
v -0.3 0.4 -0.3
v -0.3 0.6 -0.3
v -0.3 0.7 -0.3
v -0.2 0.2 -0.3
v -0.2 0.3 -0.3
v -0.2 0.4 -0.3
v -0.2 0.5 -0.3
v -0.2 0.6 -0.3
v -0.2 0.7 -0.3
v -0.1 0.6 -0.3
v -0.1 0.7 -0.3
v 0 0.2 -0.3
v 0 0.3 -0.3
v 0.1 0.2 -0.3
v 0.1 0.3 -0.3
v 0.1 0.5 -0.3
v 0.1 0.6 -0.3
v 0.1 0.7 -0.3
v 0.2 0.2 -0.3
v 0.2 0.3 -0.3
v 0.2 0.4 -0.3
v 0.2 0.5 -0.3
v 0.2 0.6 -0.3
v 0.2 0.7 -0.3
v 0.3 0.2 -0.3
v 0.3 0.3 -0.3
v 0.3 0.4 -0.3
v 0.3 0.6 -0.3
v 0.3 0.7 -0.3
v -0.3 0.4 -0.4
v -0.3 0.5 -0.4
v -0.3 0.6 -0.4
v -0.2 0.4 -0.4
v -0.2 0.5 -0.4
v -0.2 0.6 -0.4
v -0.1 0.6 -0.4
v -0.1 0.7 -0.4
v 0.1 0.6 -0.4
v 0.1 0.7 -0.4
v 0.2 0.4 -0.4
v 0.2 0.5 -0.4
v 0.2 0.6 -0.4
v 0.3 0.4 -0.4
v 0.3 0.5 -0.4
v 0.3 0.6 -0.4
v -0.3 0.2 0
v -0.2 0.2 0
v 0 0.2 0
v 0.1 0.2 0
v 0.2 0.2 0
v 0.3 0.2 0
v -0.2 0.2 -0.1
v 0 0.2 -0.1
v 0.1 0.2 -0.1
v 0.2 0.2 -0.1
v -0.3 0.2 -0.2
v -0.2 0.2 -0.2
v 0 0.2 -0.2
v 0.1 0.2 -0.2
v 0.2 0.2 -0.2
v 0.3 0.2 -0.2
v -0.3 0.2 -0.3
v -0.2 0.2 -0.3
v 0 0.2 -0.3
v 0.1 0.2 -0.3
v 0.2 0.2 -0.3
v 0.3 0.2 -0.3
v -0.3 0.4 -0.3
v -0.2 0.4 -0.3
v 0.2 0.4 -0.3
v 0.3 0.4 -0.3
v -0.3 0.4 -0.4
v -0.2 0.4 -0.4
v 0.2 0.4 -0.4
v 0.3 0.4 -0.4
v -0.3 0.5 0
v -0.2 0.5 0
v 0.2 0.5 0
v 0.3 0.5 0
v -0.3 0.5 -0.1
v -0.2 0.5 -0.1
v 0.2 0.5 -0.1
v 0.3 0.5 -0.1
v -0.1 0.6 -0.3
v 0.1 0.6 -0.3
v -0.1 0.6 -0.4
v 0.1 0.6 -0.4
v -0.3 0.3 0
v -0.2 0.3 0
v 0.2 0.3 0
v 0.3 0.3 0
v -0.3 0.3 -0.1
v -0.2 0.3 -0.1
v 0.2 0.3 -0.1
v 0.3 0.3 -0.1
v -0.3 0.6 0
v -0.1 0.6 0
v 0.1 0.6 0
v 0.3 0.6 0
v -0.3 0.6 -0.1
v -0.2 0.6 -0.1
v -0.1 0.6 -0.1
v 0.1 0.6 -0.1
v 0.2 0.6 -0.1
v 0.3 0.6 -0.1
v -0.3 0.6 -0.3
v -0.2 0.6 -0.3
v 0.2 0.6 -0.3
v 0.3 0.6 -0.3
v -0.3 0.6 -0.4
v -0.2 0.6 -0.4
v 0.2 0.6 -0.4
v 0.3 0.6 -0.4
v -0.1 0.7 0
v 0.1 0.7 0
v -0.3 0.7 -0.1
v -0.2 0.7 -0.1
v -0.1 0.7 -0.1
v 0.1 0.7 -0.1
v 0.2 0.7 -0.1
v 0.3 0.7 -0.1
v -0.2 0.7 -0.2
v -0.1 0.7 -0.2
v 0.2 0.7 -0.2
v 0.3 0.7 -0.2
v -0.3 0.7 -0.3
v -0.2 0.7 -0.3
v -0.1 0.7 -0.3
v 0.1 0.7 -0.3
v 0.2 0.7 -0.3
v 0.3 0.7 -0.3
v -0.1 0.7 -0.4
v 0.1 0.7 -0.4

# faces
f 4/6/1 2/6/1 1/6/1
f 5/6/1 2/6/1 4/6/1
f 6/5/1 3/5/1 2/5/1
f 6/6/1 2/6/1 5/6/1
f 7/5/1 3/5/1 6/5/1
f 8/1/1 6/1/1 5/1/1
f 9/6/1 7/6/1 6/6/1
f 9/1/1 6/1/1 8/1/1
f 10/6/1 7/6/1 9/6/1
f 13/6/1 10/6/1 9/6/1
f 13/6/1 9/6/1 8/6/1
f 14/4/1 11/4/1 10/4/1
f 14/6/1 10/6/1 13/6/1
f 15/4/1 11/4/1 14/4/1
f 16/1/1 13/1/1 12/1/1
f 17/6/1 14/6/1 13/6/1
f 17/1/1 13/1/1 16/1/1
f 18/1/1 15/1/1 14/1/1
f 18/6/1 14/6/1 17/6/1
f 19/1/1 15/1/1 18/1/1
f 20/6/1 18/6/1 17/6/1
f 21/6/1 18/6/1 20/6/1
f 24/1/1 23/1/1 22/1/1
f 25/1/1 24/1/1 22/1/1
f 26/1/1 24/1/1 25/1/1
f 31/6/1 28/6/1 27/6/1
f 32/6/1 28/6/1 31/6/1
f 33/6/1 30/6/1 29/6/1
f 34/6/1 30/6/1 33/6/1
f 37/1/1 36/1/1 35/1/1
f 38/1/1 36/1/1 37/1/1
f 39/4/1 38/4/1 37/4/1
f 40/4/1 38/4/1 39/4/1
f 41/4/2 42/4/2 43/4/2
f 43/4/2 42/4/2 44/4/2
f 43/1/2 44/1/2 45/1/2
f 45/1/2 44/1/2 46/1/2
f 47/6/2 48/6/2 51/6/2
f 51/6/2 48/6/2 52/6/2
f 49/6/2 50/6/2 53/6/2
f 53/6/2 50/6/2 54/6/2
f 55/1/2 56/1/2 57/1/2
f 57/1/2 56/1/2 58/1/2
f 57/2/2 58/2/2 59/2/2
f 59/2/2 58/2/2 60/2/2
f 61/6/2 62/6/2 64/6/2
f 64/6/2 62/6/2 65/6/2
f 62/5/2 63/5/2 66/5/2
f 65/6/2 62/6/2 66/6/2
f 66/5/2 63/5/2 67/5/2
f 65/3/2 66/3/2 68/3/2
f 66/6/2 67/6/2 69/6/2
f 68/3/2 66/3/2 69/3/2
f 69/6/2 67/6/2 70/6/2
f 68/1/2 69/1/2 73/1/2
f 69/6/2 70/6/2 74/6/2
f 73/1/2 69/1/2 74/1/2
f 70/1/2 71/1/2 75/1/2
f 74/6/2 70/6/2 75/6/2
f 75/1/2 71/1/2 76/1/2
f 72/1/2 73/1/2 77/1/2
f 73/6/2 74/6/2 78/6/2
f 77/1/2 73/1/2 78/1/2
f 74/6/2 75/6/2 78/6/2
f 78/6/2 75/6/2 79/6/2
f 75/4/2 76/4/2 80/4/2
f 79/6/2 75/6/2 80/6/2
f 80/4/2 76/4/2 81/4/2
f 78/5/2 79/5/2 82/5/2
f 79/6/2 80/6/2 83/6/2
f 82/5/2 79/5/2 83/5/2
f 83/6/2 80/6/2 84/6/2
f 89/6/3 86/6/3 85/6/3
f 90/6/3 86/6/3 89/6/3
f 91/1/3 88/1/3 87/1/3
f 92/1/3 90/1/3 89/1/3
f 92/1/3 91/1/3 90/1/3
f 92/1/3 88/1/3 91/1/3
f 93/1/3 88/1/3 92/1/3
f 95/1/3 92/1/3 89/1/3
f 96/1/3 92/1/3 95/1/3
f 97/5/3 93/5/3 92/5/3
f 97/1/3 92/1/3 96/1/3
f 98/6/3 94/6/3 93/6/3
f 98/5/3 93/5/3 97/5/3
f 99/2/3 96/2/3 95/2/3
f 100/1/3 97/1/3 96/1/3
f 100/2/3 96/2/3 99/2/3
f 101/3/3 98/3/3 97/3/3
f 101/1/3 97/1/3 100/1/3
f 102/6/3 94/6/3 98/6/3
f 102/3/3 98/3/3 101/3/3
f 103/6/3 94/6/3 102/6/3
f 104/1/3 100/1/3 99/1/3
f 105/1/3 100/1/3 104/1/3
f 106/2/3 101/2/3 100/2/3
f 106/1/3 100/1/3 105/1/3
f 107/1/3 102/1/3 101/1/3
f 107/2/3 101/2/3 106/2/3
f 108/6/3 105/6/3 104/6/3
f 109/6/3 105/6/3 108/6/3
f 110/1/3 102/1/3 107/1/3
f 111/1/3 102/1/3 110/1/3
f 117/1/3 113/1/3 112/1/3
f 118/6/3 114/6/3 113/6/3
f 118/1/3 113/1/3 117/1/3
f 119/6/3 114/6/3 118/6/3
f 120/6/3 116/6/3 115/6/3
f 121/6/3 116/6/3 120/6/3
f 122/1/3 121/1/3 120/1/3
f 123/1/3 121/1/3 122/1/3
f 129/1/3 125/1/3 124/1/3
f 130/1/3 125/1/3 129/1/3
f 131/3/3 127/3/3 126/3/3
f 132/1/3 128/1/3 127/1/3
f 132/3/3 127/3/3 131/3/3
f 133/1/3 128/1/3 132/1/3
f 134/5/3 130/5/3 129/5/3
f 135/5/3 130/5/3 134/5/3
f 136/5/4 137/5/4 141/5/4
f 137/6/4 138/6/4 142/6/4
f 141/5/4 137/5/4 142/5/4
f 142/6/4 138/6/4 143/6/4
f 139/6/4 140/6/4 145/6/4
f 145/6/4 140/6/4 146/6/4
f 143/1/4 144/1/4 147/1/4
f 141/1/4 142/1/4 147/1/4
f 145/4/4 146/4/4 147/4/4
f 144/1/4 145/1/4 147/1/4
f 142/1/4 143/1/4 147/1/4
f 147/4/4 146/4/4 148/4/4
f 141/1/4 147/1/4 149/1/4
f 149/1/4 147/1/4 150/1/4
f 149/4/4 150/4/4 151/4/4
f 150/1/4 147/1/4 152/1/4
f 151/4/4 150/4/4 152/4/4
f 152/1/4 147/1/4 153/1/4
f 153/1/4 147/1/4 154/1/4
f 151/1/4 152/1/4 156/1/4
f 152/1/4 153/1/4 156/1/4
f 156/1/4 153/1/4 157/1/4
f 157/1/4 153/1/4 158/1/4
f 153/2/4 154/2/4 159/2/4
f 158/1/4 153/1/4 159/1/4
f 154/1/4 155/1/4 160/1/4
f 159/2/4 154/2/4 160/2/4
f 160/1/4 155/1/4 161/1/4
f 156/5/4 157/5/4 162/5/4
f 157/6/4 158/6/4 163/6/4
f 162/5/4 157/5/4 163/5/4
f 163/6/4 158/6/4 164/6/4
f 160/6/4 161/6/4 165/6/4
f 165/6/4 161/6/4 166/6/4
f 167/4/4 168/4/4 170/4/4
f 168/1/4 169/1/4 171/1/4
f 170/4/4 168/4/4 171/4/4
f 171/1/4 169/1/4 172/1/4
f 173/6/4 174/6/4 175/6/4
f 175/6/4 174/6/4 176/6/4
f 177/1/4 178/1/4 180/1/4
f 178/4/4 179/4/4 181/4/4
f 180/1/4 178/1/4 181/1/4
f 181/4/4 179/4/4 182/4/4
f 189/6/5 184/6/5 183/6/5
f 189/1/5 185/1/5 184/1/5
f 190/2/5 186/2/5 185/2/5
f 190/1/5 185/1/5 189/1/5
f 191/1/5 187/1/5 186/1/5
f 191/2/5 186/2/5 190/2/5
f 192/6/5 188/6/5 187/6/5
f 192/1/5 187/1/5 191/1/5
f 193/6/5 191/6/5 190/6/5
f 193/6/5 190/6/5 189/6/5
f 193/6/5 192/6/5 191/6/5
f 193/6/5 189/6/5 183/6/5
f 194/6/5 192/6/5 193/6/5
f 195/6/5 192/6/5 194/6/5
f 196/6/5 192/6/5 195/6/5
f 197/6/5 188/6/5 192/6/5
f 197/6/5 192/6/5 196/6/5
f 198/6/5 188/6/5 197/6/5
f 199/5/5 194/5/5 193/5/5
f 200/1/5 195/1/5 194/1/5
f 200/5/5 194/5/5 199/5/5
f 201/4/5 196/4/5 195/4/5
f 201/1/5 195/1/5 200/1/5
f 202/1/5 197/1/5 196/1/5
f 202/4/5 196/4/5 201/4/5
f 203/5/5 198/5/5 197/5/5
f 203/1/5 197/1/5 202/1/5
f 204/5/5 198/5/5 203/5/5
f 209/4/5 206/4/5 205/4/5
f 210/4/5 206/4/5 209/4/5
f 211/1/5 208/1/5 207/1/5
f 212/1/5 208/1/5 211/1/5
f 217/1/5 214/1/5 213/1/5
f 218/1/5 214/1/5 217/1/5
f 219/1/5 216/1/5 215/1/5
f 220/1/5 216/1/5 219/1/5
f 223/6/5 222/6/5 221/6/5
f 224/6/5 222/6/5 223/6/5
f 225/6/6 226/6/6 229/6/6
f 229/6/6 226/6/6 230/6/6
f 227/6/6 228/6/6 231/6/6
f 231/6/6 228/6/6 232/6/6
f 233/1/6 234/1/6 237/1/6
f 237/1/6 234/1/6 238/1/6
f 238/1/6 234/1/6 239/1/6
f 235/1/6 236/1/6 240/1/6
f 240/1/6 236/1/6 241/1/6
f 241/1/6 236/1/6 242/1/6
f 243/1/6 244/1/6 247/1/6
f 247/1/6 244/1/6 248/1/6
f 245/4/6 246/4/6 249/4/6
f 249/4/6 246/4/6 250/4/6
f 251/6/6 252/6/6 255/6/6
f 255/6/6 252/6/6 256/6/6
f 253/6/6 254/6/6 259/6/6
f 254/1/6 255/1/6 259/1/6
f 255/6/6 256/6/6 260/6/6
f 259/1/6 255/1/6 260/1/6
f 257/5/6 258/5/6 261/5/6
f 256/1/6 257/1/6 261/1/6
f 261/5/6 258/5/6 262/5/6
f 253/6/6 259/6/6 263/6/6
f 259/4/6 260/4/6 264/4/6
f 263/6/6 259/6/6 264/6/6
f 260/6/6 256/6/6 265/6/6
f 264/4/6 260/4/6 265/4/6
f 256/1/6 261/1/6 266/1/6
f 265/6/6 256/6/6 266/6/6
f 261/6/6 262/6/6 267/6/6
f 266/1/6 261/1/6 267/1/6
f 267/6/6 262/6/6 268/6/6
f 265/6/6 266/6/6 269/6/6
f 269/6/6 266/6/6 270/6/6
